<svg width="210" height="48" viewBox="0 0 210 48" fill="none" xmlns="http://www.w3.org/2000/svg">
<path d="M0 47.7618V0.119109H7.71099L34.3182 38.7097V0.119109H40.2497V47.7618H32.5387L5.93153 9.17122V47.7618H0Z" fill="black"/>
<path d="M44.7048 47.7618V0.119109H82.8361V7.98015H50.6363V23.5831H82.8361V31.4442H50.6363V47.7618H44.7048Z" fill="black"/>
<path d="M105.314 47.8327C95.0189 47.8327 87.3079 39.6739 87.3079 28.7756C87.3079 18.2347 95.0189 10.3141 105.314 10.3141C115.61 10.3141 123.321 18.2347 123.321 28.7756C123.321 39.6739 115.61 47.8327 105.314 47.8327ZM93.1123 28.7756C93.1123 35.3265 98.3236 40.2099 105.314 40.2099C112.305 40.2099 117.516 35.3265 117.516 28.7756C117.516 22.5225 112.305 17.8773 105.314 17.8773C98.3236 17.8773 93.1123 22.5225 93.1123 28.7756Z" fill="black"/>
<path d="M145.159 47.8327C134.863 47.8327 127.152 39.6739 127.152 28.7756C127.152 18.2347 134.863 10.3141 145.159 10.3141C155.454 10.3141 163.165 18.2347 163.165 28.7756C163.165 39.6739 155.454 47.8327 145.159 47.8327ZM132.957 28.7756C132.957 35.3265 138.168 40.2099 145.159 40.2099C152.149 40.2099 157.361 35.3265 157.361 28.7756C157.361 22.5225 152.149 17.8773 145.159 17.8773C138.168 17.8773 132.957 22.5225 132.957 28.7756Z" fill="black"/>
<path d="M169.327 47.7618V0.119109H175.258C178.817 0.119109 184.833 0 188.392 0C200.721 0 210 10.2432 210 23.9405C210 37.6973 200.552 48 187.969 48C184.41 48 178.817 47.7618 175.258 47.7618H169.327ZM175.258 39.7221C178.902 39.9007 184.325 40.0794 187.969 40.0794C197.162 40.0794 204.026 33.1712 204.026 23.9405C204.026 14.7692 197.332 7.9206 188.392 7.9206C182.927 7.9206 177.292 8.0397 175.258 8.15881V39.7221Z" fill="black"/>
</svg>
