<svg width="940" height="1222" viewBox="0 0 940 1222" fill="none" xmlns="http://www.w3.org/2000/svg">
<path d="M692.792 992.919C576.999 919.908 464.73 913.218 341.261 870.301C216.516 826.619 80.8246 747.732 27.5783 634.199C-24.6472 520.412 6.59318 371.724 46.7636 224.062C85.9132 76.6537 133.738 -70.7498 247.06 -107.675C359.361 -144.345 536.65 -72.578 674.18 -64.5985C811.455 -57.6393 908.462 -116.509 1009.26 -121.047C1110.05 -125.585 1214.63 -75.7918 1313.84 -4.06569C1413.05 67.6604 1506.88 161.319 1522.88 268.966C1538.87 376.613 1476.78 497.227 1440.7 626.526C1405.65 755.572 1397.89 894.069 1336.82 1014.43C1275.75 1134.79 1161.36 1237.01 1045.27 1219.35C928.158 1201.94 808.33 1064.91 692.792 992.919Z" fill="#F08C1F"/>
</svg>
