<svg width="16" height="28" viewBox="0 0 16 28" fill="none" xmlns="http://www.w3.org/2000/svg">
<path d="M15.414 26.7279C15.7889 26.3528 15.9995 25.8442 15.9995 25.3139C15.9995 24.7836 15.7889 24.275 15.414 23.8999L5.51397 13.9999L15.414 4.09991C15.7783 3.7227 15.9799 3.2175 15.9753 2.69311C15.9708 2.16871 15.7604 1.66709 15.3896 1.29627C15.0188 0.925454 14.5172 0.715118 13.9928 0.710561C13.4684 0.706005 12.9632 0.907594 12.586 1.27191L1.27197 12.5859C0.897031 12.961 0.686401 13.4696 0.686401 13.9999C0.686401 14.5302 0.897031 15.0389 1.27197 15.4139L12.586 26.7279C12.961 27.1028 13.4696 27.3135 14 27.3135C14.5303 27.3135 15.0389 27.1028 15.414 26.7279Z" fill="black"/>
</svg>
