<svg width="16" height="28" viewBox="0 0 16 28" fill="none" xmlns="http://www.w3.org/2000/svg">
<path d="M0.586026 1.2721C0.211084 1.64715 0.000453013 2.15577 0.000453019 2.6861C0.000453025 3.21642 0.211084 3.72504 0.586026 4.1001L10.486 14.0001L0.586026 23.9001C0.22171 24.2773 0.0201219 24.7825 0.0246785 25.3069C0.0292352 25.8313 0.239573 26.3329 0.610389 26.7037C0.981205 27.0745 1.48283 27.2849 2.00722 27.2894C2.53162 27.294 3.03682 27.0924 3.41403 26.7281L14.728 15.4141C15.103 15.039 15.3136 14.5304 15.3136 14.0001C15.3136 13.4698 15.103 12.9611 14.728 12.5861L3.41403 1.2721C3.03897 0.897154 2.53035 0.686524 2.00003 0.686524C1.4697 0.686524 0.961082 0.897154 0.586026 1.2721Z" fill="black"/>
</svg>
