<svg width="1486" height="1545" viewBox="0 0 1486 1545" fill="none" xmlns="http://www.w3.org/2000/svg">
<path d="M1176.18 981.642C1077.33 1076.33 1043.67 1183.65 972.162 1293.07C899.599 1403.54 790.229 1516.12 667.187 1540.31C544.145 1563.46 407.432 1497.18 273.874 1422.48C140.315 1348.83 8.86042 1266.76 0.447338 1147.88C-7.96574 1030.04 104.56 875.379 145.574 743.865C185.536 612.351 151.883 503.983 171.865 405.084C191.846 306.186 265.461 216.756 359.057 137.848C452.652 58.9395 566.229 -9.44786 674.548 1.07327C782.867 11.5944 884.876 101.024 1001.61 167.307C1118.34 232.538 1250.85 273.57 1352.86 361.948C1454.87 450.325 1526.38 586.048 1481.16 694.415C1435.94 803.835 1273.98 886.952 1176.18 981.642Z" fill="#F08C1F"/>
</svg>
