<svg width="28" height="28" viewBox="0 0 28 28" fill="none" xmlns="http://www.w3.org/2000/svg">
<path d="M14 27.3333C12.1777 27.3333 10.4555 26.9831 8.83329 26.2826C7.21107 25.5822 5.79463 24.6266 4.58396 23.416C3.3724 22.2053 2.41685 20.7888 1.71729 19.1666C1.01774 17.5444 0.667515 15.8222 0.666626 14C0.666626 12.1555 1.01685 10.428 1.71729 8.81729C2.41774 7.20663 3.37329 5.79552 4.58396 4.58396C5.79463 3.3724 7.21063 2.41685 8.83196 1.71729C10.4533 1.01774 12.176 0.667515 14 0.666626C15.8444 0.666626 17.5724 1.01685 19.184 1.71729C20.7955 2.41774 22.2062 3.37329 23.416 4.58396C24.6275 5.79463 25.5831 7.20574 26.2826 8.81729C26.9822 10.4288 27.3324 12.1564 27.3333 14C27.3333 15.8222 26.9831 17.5444 26.2826 19.1666C25.5822 20.7888 24.6266 22.2057 23.416 23.4173C22.2053 24.628 20.7942 25.5835 19.1826 26.284C17.5711 26.9844 15.8435 27.3342 14 27.3333ZM14 24.6C14.5777 23.8 15.0777 22.9666 15.5 22.1C15.9222 21.2333 16.2666 20.3111 16.5333 19.3333H11.4666C11.7333 20.3111 12.0777 21.2333 12.5 22.1C12.9222 22.9666 13.4222 23.8 14 24.6ZM10.5333 24.0666C10.1333 23.3333 9.78307 22.572 9.48263 21.7826C9.18218 20.9933 8.9324 20.1768 8.73329 19.3333H4.79996C5.4444 20.4444 6.25018 21.4111 7.21729 22.2333C8.1844 23.0555 9.28974 23.6666 10.5333 24.0666ZM17.4666 24.0666C18.7111 23.6666 19.8168 23.0555 20.784 22.2333C21.7511 21.4111 22.5564 20.4444 23.2 19.3333H19.2666C19.0666 20.1777 18.8168 20.9946 18.5173 21.784C18.2177 22.5733 17.8675 23.3342 17.4666 24.0666ZM3.66663 16.6666H8.19996C8.13329 16.2222 8.08351 15.7835 8.05063 15.3506C8.01774 14.9177 8.00085 14.4675 7.99996 14C7.99996 13.5333 8.01685 13.0835 8.05063 12.6506C8.0844 12.2177 8.13418 11.7786 8.19996 11.3333H3.66663C3.55551 11.7777 3.4724 12.2168 3.41729 12.6506C3.36218 13.0844 3.33418 13.5342 3.33329 14C3.33329 14.4666 3.36129 14.9168 3.41729 15.3506C3.47329 15.7844 3.5564 16.2231 3.66663 16.6666ZM10.8666 16.6666H17.1333C17.2 16.2222 17.2502 15.7835 17.284 15.3506C17.3177 14.9177 17.3342 14.4675 17.3333 14C17.3333 13.5333 17.3164 13.0835 17.2826 12.6506C17.2488 12.2177 17.1991 11.7786 17.1333 11.3333H10.8666C10.8 11.7777 10.7502 12.2168 10.7173 12.6506C10.6844 13.0844 10.6675 13.5342 10.6666 14C10.6666 14.4666 10.6835 14.9168 10.7173 15.3506C10.7511 15.7844 10.8008 16.2231 10.8666 16.6666ZM19.8 16.6666H24.3333C24.4444 16.2222 24.528 15.7835 24.584 15.3506C24.64 14.9177 24.6675 14.4675 24.6666 14C24.6666 13.5333 24.6391 13.0835 24.584 12.6506C24.5288 12.2177 24.4453 11.7786 24.3333 11.3333H19.8C19.8666 11.7777 19.9168 12.2168 19.9506 12.6506C19.9844 13.0844 20.0008 13.5342 20 14C20 14.4666 19.9831 14.9168 19.9493 15.3506C19.9155 15.7844 19.8657 16.2231 19.8 16.6666ZM19.2666 8.66663H23.2C22.5555 7.55552 21.7502 6.58885 20.784 5.76663C19.8177 4.9444 18.712 4.33329 17.4666 3.93329C17.8666 4.66663 18.2168 5.42796 18.5173 6.21729C18.8177 7.00663 19.0675 7.82307 19.2666 8.66663ZM11.4666 8.66663H16.5333C16.2666 7.68885 15.9222 6.76663 15.5 5.89996C15.0777 5.03329 14.5777 4.19996 14 3.39996C13.4222 4.19996 12.9222 5.03329 12.5 5.89996C12.0777 6.76663 11.7333 7.68885 11.4666 8.66663ZM4.79996 8.66663H8.73329C8.93329 7.82218 9.18351 7.00529 9.48396 6.21596C9.7844 5.42663 10.1342 4.66574 10.5333 3.93329C9.28885 4.33329 8.18307 4.9444 7.21596 5.76663C6.24885 6.58885 5.44351 7.55552 4.79996 8.66663Z" fill="black"/>
</svg>
